<svg id="Layer_1" data-name="Layer 1" xmlns="http://www.w3.org/2000/svg" xmlns:xlink="http://www.w3.org/1999/xlink" viewBox="0 0 1021.34 233.15"><defs><style>.cls-1{fill:#fff;}.cls-2{fill:url(#linear-gradient);}.cls-3{font-size:36.7px;fill:#8bbf54;font-family:Montserrat-SemiBold, Montserrat;font-weight:600;}.cls-4{letter-spacing:-0.02em;}.cls-5{letter-spacing:-0.01em;}.cls-6{letter-spacing:0em;}.cls-7{font-size:123.63px;font-family:Montserrat-Bold, Montserrat;font-weight:700;}.cls-8{letter-spacing:-0.04em;}.cls-9{letter-spacing:-0.02em;}.cls-10{letter-spacing:-0.03em;}.cls-11{letter-spacing:-0.03em;}</style><linearGradient id="linear-gradient" y1="116.58" x2="1021.34" y2="116.58" gradientUnits="userSpaceOnUse"><stop offset="0" stop-color="#556273"/><stop offset="1" stop-color="#182940"/></linearGradient></defs><rect class="cls-1" width="1021.34" height="233.15"/><g><path class="cls-2" d="M381,192.8,321.33,96.48h-74.5v96.32H188.19V41.77H321.33c46.54,0,72,20.89,72,52.34,0,22.7-14.7,39.2-34.42,46.13L403.11,192.8Zm-74.5-56.41h15.11c25.43,0,37.38-9.45,37.38-25.22s-11.94-25-37.38-25H306.53Z"/><path class="cls-2" d="M532.7,192.8V41.77H474.07v151Z"/><path class="cls-2" d="M558.62,41.77h89.87l21.3,77.83,21.3-77.83h89.87V192.8H722.3V91.32l-22.32,80.12H658.59L636,91.32v101.48H577.41l-.21-151Z"/><path class="cls-2" d="M1021.34,41.77v31.25H902.13v25.22h93.1v29.43h-93.1v34.42h120.83v30.71H843.5V41.77Z"/><path class="cls-2" d="M136.19,41.77,0,192.8H59.42L108,89.5,156.76,192.8h58.18L136.19,41.77Z"/><text class="cls-7" transform="translate(19.34 163.66)"><tspan class="cls-11" xml:space="preserve">NEX</tspan><tspan classspan="cls-8" x="424.38" y="0">T</tspan><tspan x="502.8" y="0">-</tspan><tspan class="cls-10" x="571.2" y="0">G</tspan><tspan class="cls-9" x="668.6" y="0">E</tspan><tspan x="749.66" y="0">N</tspan></text><text class="cls-3" transform="translate(42.59 208.57)"><tspan xml:space="preserve">ENGINEERING AND RESEA</tspan><tspan class="cls-4" x="515.63" y="0">R</tspan><tspan class="cls-5" x="538.54" y="0">CH DEVEL</tspan><tspan class="cls-6" x="729.89" y="0">O</tspan><tspan x="754.7" y="0">PMENT</tspan></text></g></svg>